  0
SECTION
  2
HEADER
  9
$ANGBASE
  50
0.0
  9
$ANGDIR
  70
1
  9
$MEASUREMENT
  70
1
  0
ENDSEC
  0
SECTION
  2
TABLES
  0
TABLE
  2
LTYPE
  70
4
  0
LTYPE
  5
40F
  2
CONTINUOUS
  70
0
  3
Solid line
  72
65
  73
0
  40
0.0
  0
LTYPE
  5
410
  2
DASHDOT
 70
0
  3
Dash Dot ____ _ ____ _
 72
65
 73
4
 40
2.0
 49
1.25
 49
-0.25
 49
0.25
 49
-0.25
  0
LTYPE
  5
411
  2
DASHED
 70
0
  3
Dashed __ __ __ __ __
 72
65
 73
2
 40
0.75
 49
0.5
 49
-0.25
  0
LTYPE
  5
43B
  2
DOTTED
 70
0
  3
Dotted .  .  .  .
 72
65
 73
2
 40
0.2
 49
0.0
 49
-0.2
  0
ENDTAB
  0
TABLE
  2
STYLE
  70
4
  0
STYLE
  2
KICAD
  70
0
  40
0
  41
1
  42
1
  50
0
  71
0
  3
isocp.shx
  0
STYLE
  2
KICADB
  70
0
  40
0
  41
1
  42
1
  50
0
  71
0
  3
isocp.shx
  0
STYLE
  2
KICADI
  70
0
  40
0
  41
1
  42
1
  50
15
  71
0
  3
isocp.shx
  0
STYLE
  2
KICADBI
  70
0
  40
0
  41
1
  42
1
  50
15
  71
0
  3
isocp.shx
  0
ENDTAB
  0
TABLE
  2
LAYER
  70
1
  0
LAYER
  2
BLACK
  70
0
  62
7
  6
CONTINUOUS
  0
ENDTAB
  0
ENDSEC
  0
SECTION
  2
ENTITIES
0
LINE
8
BLACK
6
CONTINUOUS
10
147.1799000000000035
20
-60.6614329999999953
11
146.5499999999999829
21
-60.1499999999999986
0
LINE
8
BLACK
6
CONTINUOUS
10
131.5311979999999892
20
-90.517682999999991
11
127.8565069999999935
21
-95.0773159999999962
0
LINE
8
BLACK
6
CONTINUOUS
10
147.9535390000000064
20
-61.8065929999999994
11
147.5331280000000049
21
-61.1651589999999956
0
LINE
8
BLACK
6
CONTINUOUS
10
152.7771259999999813
20
-154.8267400000000009
11
152.9482179999999971
21
-154.6078499999999849
0
ARC
8
BLACK
10
167.455600000000004
20
-117.6646999999999963
40
4.151695756823349
50
102.93922794
51
113.27468984
0
LINE
8
BLACK
6
CONTINUOUS
10
163.761021999999997
20
-95.873897999999997
11
160.4135049999999865
21
-91.8906679999999909
0
LINE
8
BLACK
6
CONTINUOUS
10
162.8723369999999875
20
-89.3097149999999971
11
163.7539830000000052
21
-89.0875909999999891
0
LINE
8
BLACK
6
CONTINUOUS
10
145.1954139999999995
20
-155.7668359999999836
11
149.5467079999999953
21
-155.7769209999999873
0
LINE
8
BLACK
6
CONTINUOUS
10
124.0140219999999971
20
-141.4333799999999997
11
125.7554299999999898
21
-141.7408059999999921
0
LINE
8
BLACK
6
CONTINUOUS
10
182.9529609999999877
20
-136.9006430000000023
11
183.5292049999999904
21
-136.6398439999999823
0
LINE
8
BLACK
6
CONTINUOUS
10
112.1712519999999955
20
-138.4655269999999803
11
116.4248329999999925
21
-139.7180369999999812
0
LINE
8
BLACK
6
CONTINUOUS
10
161.9078449999999805
20
-89.5341529999999892
11
162.8723369999999875
21
-89.3097149999999971
0
LINE
8
BLACK
6
CONTINUOUS
10
133.2680919999999958
20
-142.6941539999999975
11
135.7054300000000069
21
-142.8878469999999936
0
LINE
8
BLACK
6
CONTINUOUS
10
163.7539830000000052
20
-89.0875909999999891
11
164.4877630000000011
21
-88.8885219999999947
0
LINE
8
BLACK
6
CONTINUOUS
10
137.499937999999986
20
-145.9102179999999862
11
137.5054299999999898
21
-148.5212870000000009
0
LINE
8
BLACK
6
CONTINUOUS
10
121.0983039999999988
20
-112.8830600000000004
11
123.4193709999999982
21
-113.4076629999999994
0
LINE
8
BLACK
6
CONTINUOUS
10
131.5499999999999829
20
-90.25
11
131.5999999999999943
21
-90.3499999999999943
0
LINE
8
BLACK
6
CONTINUOUS
10
108.0275630000000007
20
-130.6227489999999989
11
107.0290090000000021
21
-131.408961000000005
0
LINE
8
BLACK
6
CONTINUOUS
10
122.2460839999999962
20
-117.4187869999999947
11
123.6188219999999944
21
-115.8202149999999904
0
LINE
8
BLACK
6
CONTINUOUS
10
162.4769139999999936
20
-142.1351139999999873
11
169.351302000000004
21
-140.9779800000000023
0
LINE
8
BLACK
6
CONTINUOUS
10
182.2679849999999817
20
-137.1913869999999918
11
182.9529609999999877
21
-136.9006430000000023
0
LINE
8
BLACK
6
CONTINUOUS
10
153.3837859999999864
20
-148.5404199999999832
11
153.4248580000000004
21
-144.7076820000000055
0
LINE
8
BLACK
6
CONTINUOUS
10
160.9634949999999947
20
-89.7539609999999897
11
161.9078449999999805
21
-89.5341529999999892
0
LINE
8
BLACK
6
CONTINUOUS
10
111.8368449999999967
20
-127.6234489999999937
11
110.6083489999999898
21
-128.6170489999999802
0
LINE
8
BLACK
6
CONTINUOUS
10
143.0633090000000038
20
-61.6072629999999961
11
142.2647609999999929
21
-62.9008679999999956
0
LINE
8
BLACK
6
CONTINUOUS
10
119.6691119999999984
20
-112.5579159999999916
11
121.0983039999999988
21
-112.8830600000000004
0
LINE
8
BLACK
6
CONTINUOUS
10
150.0071389999999951
20
-65.147075000000001
11
148.4224959999999953
21
-62.568368999999997
0
LINE
8
BLACK
6
CONTINUOUS
10
124.3642899999999969
20
-86.3387910000000005
11
124.3703879999999913
21
-86.5830809999999929
0
LINE
8
BLACK
6
CONTINUOUS
10
131.3728309999999908
20
-90.1673619999999971
11
131.5499999999999829
21
-90.25
0
LINE
8
BLACK
6
CONTINUOUS
10
176.9842209999999909
20
-125.8632539999999977
11
174.19923
21
-123.3007569999999902
0
LINE
8
BLACK
6
CONTINUOUS
10
160.1448309999999822
20
-89.9618959999999959
11
160.9634949999999947
21
-89.7539609999999897
0
LINE
8
BLACK
6
CONTINUOUS
10
155.1054299999999841
20
-142.8915969999999902
11
162.4769139999999936
21
-142.1351139999999873
0
LINE
8
BLACK
6
CONTINUOUS
10
174.2743289999999945
20
-106.2253509999999892
11
170.7535910000000001
21
-103.1057879999999898
0
LINE
8
BLACK
6
CONTINUOUS
10
110.6083489999999898
20
-128.6170489999999802
11
109.278899999999993
21
-129.664749999999998
0
LINE
8
BLACK
6
CONTINUOUS
10
128.323962999999992
20
-81.1083050000000014
11
126.3411769999999876
21
-83.0017479999999921
0
LINE
8
BLACK
6
CONTINUOUS
10
127.93054699999999
20
-142.0793029999999817
11
130.5584589999999992
21
-142.4105519999999956
0
LINE
8
BLACK
6
CONTINUOUS
10
153.4542380000000037
20
-143.1408820000000048
11
153.5481769999999813
21
-143.043186999999989
0
LINE
8
BLACK
6
CONTINUOUS
10
117.0612579999999951
20
-122.8630939999999896
11
114.8374239999999986
21
-124.9795569999999998
0
LINE
8
BLACK
6
CONTINUOUS
10
124.1583069999999935
20
-99.2148600000000016
11
120.4503739999999965
21
-102.9158959999999894
0
LINE
8
BLACK
6
CONTINUOUS
10
122.8739199999999983
20
-141.2220039999999983
11
124.0140219999999971
21
-141.4333799999999997
0
LINE
8
BLACK
6
CONTINUOUS
10
142.2647609999999929
20
-62.9008679999999956
11
140.3690650000000062
21
-65.9403209999999973
0
LINE
8
BLACK
6
CONTINUOUS
10
139.2554299999999898
20
-155.7387760000000014
11
145.1954139999999995
21
-155.7668359999999836
0
LINE
8
BLACK
6
CONTINUOUS
10
136.2894049999999879
20
-71.8865049999999997
11
134.4339960000000076
21
-74.3118809999999996
0
LINE
8
BLACK
6
CONTINUOUS
10
135.7054300000000069
20
-142.8878469999999936
11
136.527275000000003
21
-142.9474919999999827
0
LINE
8
BLACK
6
CONTINUOUS
10
154.5061689999999999
20
-142.9399740000000065
11
155.1054299999999841
21
-142.8915969999999902
0
LINE
8
BLACK
6
CONTINUOUS
10
153.1765340000000037
20
-69.9549829999999986
11
151.6128709999999842
21
-67.6410290000000032
0
LINE
8
BLACK
6
CONTINUOUS
10
137.5116569999999854
20
-150.913060999999999
11
137.5328130000000044
21
-152.5608560000000011
0
LINE
8
BLACK
6
CONTINUOUS
10
138.3895719999999869
20
-155.1838290000000029
11
138.0476620000000025
21
-154.8493359999999939
0
LINE
8
BLACK
6
CONTINUOUS
10
153.4248580000000004
20
-144.7076820000000055
11
153.4542380000000037
21
-143.1408820000000048
0
LINE
8
BLACK
6
CONTINUOUS
10
126.2730339999999956
20
-88.901016999999996
11
126.9931869999999918
21
-89.0971880000000027
0
LINE
8
BLACK
6
CONTINUOUS
10
122.2460839999999962
20
-117.4187869999999947
11
121.116548999999992
21
-118.6887759999999901
0
LINE
8
BLACK
6
CONTINUOUS
10
167.1725260000000048
20
-113.4494109999999978
11
169.2326129999999864
21
-112.9829999999999899
0
LINE
8
BLACK
6
CONTINUOUS
10
120.7554299999999898
20
-140.7795919999999796
11
121.8956449999999876
21
-141.025306999999998
0
LINE
8
BLACK
6
CONTINUOUS
10
179.8298729999999921
20
-128.2624250000000075
11
176.9842209999999909
21
-125.8632539999999977
0
LINE
8
BLACK
6
CONTINUOUS
10
116.4248329999999925
20
-139.7180369999999812
11
120.7554299999999898
21
-140.7795919999999796
0
LINE
8
BLACK
6
CONTINUOUS
10
158.5782979999999895
20
-76.8883699999999948
11
156.6166699999999992
21
-74.5608139999999935
0
LINE
8
BLACK
6
CONTINUOUS
10
140.3690650000000062
20
-65.9403209999999973
11
138.3233459999999866
21
-69.0136389999999977
0
LINE
8
BLACK
6
CONTINUOUS
10
170.7535910000000001
20
-103.1057879999999898
11
167.2284259999999847
21
-99.6336709999999925
0
LINE
8
BLACK
6
CONTINUOUS
10
169.6009320000000002
20
-118.6213869999999986
11
167.7114289999999812
21
-116.5011389999999949
0
LINE
8
BLACK
6
CONTINUOUS
10
138.3233459999999866
20
-69.0136389999999977
11
136.2894049999999879
21
-71.8865049999999997
0
LINE
8
BLACK
6
CONTINUOUS
10
160.4135049999999865
20
-91.8906679999999909
11
159.7297949999999958
21
-91.0288789999999892
0
LINE
8
BLACK
6
CONTINUOUS
10
120.4503739999999965
20
-102.9158959999999894
11
115.9966459999999984
21
-106.8236299999999943
0
LINE
8
BLACK
6
CONTINUOUS
10
125.7554299999999898
20
-141.7408059999999921
11
127.93054699999999
21
-142.0793029999999817
0
LINE
8
BLACK
6
CONTINUOUS
10
160.7728529999999978
20
-79.2628270000000015
11
158.5782979999999895
21
-76.8883699999999948
0
LINE
8
BLACK
6
CONTINUOUS
10
117.3215739999999983
20
-111.9914829999999881
11
118.3786300000000011
21
-112.2519419999999997
0
LINE
8
BLACK
6
CONTINUOUS
10
159.4528229999999951
20
-90.1504869999999983
11
160.1448309999999822
21
-89.9618959999999959
0
LINE
8
BLACK
6
CONTINUOUS
10
118.3786300000000011
20
-112.2519419999999997
11
119.6691119999999984
21
-112.5579159999999916
0
LINE
8
BLACK
6
CONTINUOUS
10
121.8956449999999876
20
-141.025306999999998
11
122.8739199999999983
21
-141.2220039999999983
0
LINE
8
BLACK
6
CONTINUOUS
10
125.0548539999999917
20
-114.1246629999999982
11
123.6188219999999944
21
-115.8202149999999904
0
LINE
8
BLACK
6
CONTINUOUS
10
130.6669369999999901
20
-89.9780480000000011
11
131.3728309999999908
21
-90.1673619999999971
0
LINE
8
BLACK
6
CONTINUOUS
10
149.5467079999999953
20
-155.7769209999999873
11
150.9863169999999855
21
-155.7186590000000024
0
LINE
8
BLACK
6
CONTINUOUS
10
182.94468999999998
20
-130.6807499999999891
11
179.8298729999999921
21
-128.2624250000000075
0
LINE
8
BLACK
6
CONTINUOUS
10
137.5328130000000044
20
-152.5608560000000011
11
137.5641579999999919
21
-153.7558559999999943
0
LINE
8
BLACK
6
CONTINUOUS
10
127.8565069999999935
20
-95.0773159999999962
11
124.1583069999999935
21
-99.2148600000000016
0
LINE
8
BLACK
6
CONTINUOUS
10
138.7877979999999809
20
-155.4638789999999915
11
139.2554299999999898
21
-155.7387760000000014
0
LINE
8
BLACK
6
CONTINUOUS
10
125.0548539999999917
20
-114.1246629999999982
11
125.1499999999999915
21
-114.
0
LINE
8
BLACK
6
CONTINUOUS
10
179.1999999999999886
20
-138.5499999999999829
11
182.2679849999999817
21
-137.1913869999999918
0
LINE
8
BLACK
6
CONTINUOUS
10
123.4193709999999982
20
-113.4076629999999994
11
124.4342180000000013
21
-113.6632850000000019
0
LINE
8
BLACK
6
CONTINUOUS
10
165.3503989999999817
20
-83.8543080000000032
11
163.4760679999999979
21
-81.9887760000000014
0
LINE
8
BLACK
6
CONTINUOUS
10
153.5481769999999813
20
-143.043186999999989
11
153.9896970000000067
21
-142.9917519999999911
0
LINE
8
BLACK
6
CONTINUOUS
10
124.4342180000000013
20
-113.6632850000000019
11
125.0021939999999887
21
-113.8410149999999987
0
LINE
8
BLACK
6
CONTINUOUS
10
126.9931869999999918
20
-89.0971880000000027
11
127.8881359999999887
21
-89.3221350000000029
0
LINE
8
BLACK
6
CONTINUOUS
10
137.4484630000000038
20
-143.3567789999999889
11
137.4790140000000065
21
-144.3889409999999884
0
LINE
8
BLACK
6
CONTINUOUS
10
159.25
20
-90.3499999999999943
11
159.2999999999999829
21
-90.25
0
LINE
8
BLACK
6
CONTINUOUS
10
169.2326129999999864
20
-112.9829999999999899
11
172.2873789999999872
21
-112.2902259999999899
0
LINE
8
BLACK
6
CONTINUOUS
10
183.8985679999999832
20
-131.4354579999999828
11
182.94468999999998
21
-130.6807499999999891
0
LINE
8
BLACK
6
CONTINUOUS
10
130.5584589999999992
20
-142.4105519999999956
11
133.2680919999999958
21
-142.6941539999999975
0
LINE
8
BLACK
6
CONTINUOUS
10
128.8702140000000043
20
-89.5483929999999901
11
129.8328589999999849
21
-89.7693439999999896
0
LINE
8
BLACK
6
CONTINUOUS
10
151.6128709999999842
20
-67.6410290000000032
11
150.0071389999999951
21
-65.147075000000001
0
LINE
8
BLACK
6
CONTINUOUS
10
129.8328589999999849
20
-89.7693439999999896
11
130.6669369999999901
21
-89.9780480000000011
0
LINE
8
BLACK
6
CONTINUOUS
10
126.3411769999999876
20
-83.0017479999999921
11
125.211354
21
-84.0737219999999894
0
LINE
8
BLACK
6
CONTINUOUS
10
154.6331179999999961
20
-71.9887760000000014
11
153.1765340000000037
21
-69.9549829999999986
0
LINE
8
BLACK
6
CONTINUOUS
10
159.7297949999999958
20
-91.0288789999999892
11
159.3006210000000067
21
-90.4879219999999975
0
LINE
8
BLACK
6
CONTINUOUS
10
172.2873789999999872
20
-112.2902259999999899
11
173.4933479999999975
21
-111.960875999999999
0
LINE
8
BLACK
6
CONTINUOUS
10
130.4473459999999818
20
-78.9059269999999913
11
128.323962999999992
21
-81.1083050000000014
0
LINE
8
BLACK
6
CONTINUOUS
10
167.2284259999999847
20
-99.6336709999999925
11
163.761021999999997
21
-95.873897999999997
0
LINE
8
BLACK
6
CONTINUOUS
10
121.116548999999992
20
-118.6887759999999901
11
119.2230169999999987
21
-120.6996209999999934
0
LINE
8
BLACK
6
CONTINUOUS
10
125.1499999999999915
20
-114.
11
125.1499999999999915
21
-113.8999999999999915
0
LINE
8
BLACK
6
CONTINUOUS
10
153.3554299999999841
20
-153.9387759999999901
11
153.3837859999999864
21
-148.5404199999999832
0
LINE
8
BLACK
6
CONTINUOUS
10
136.527275000000003
20
-142.9474919999999827
11
136.9780599999999993
21
-143.0018089999999802
0
LINE
8
BLACK
6
CONTINUOUS
10
114.8374239999999986
20
-124.9795569999999998
11
112.7554299999999898
21
-126.8485919999999965
0
LINE
8
BLACK
6
CONTINUOUS
10
166.5259629999999902
20
-113.6184239999999903
11
167.1725260000000048
21
-113.4494109999999978
0
LINE
8
BLACK
6
CONTINUOUS
10
175.713957999999991
20
-139.4248110000000054
11
179.1999999999999886
21
-138.5499999999999829
0
LINE
8
BLACK
6
CONTINUOUS
10
171.2659160000000043
20
-120.3887759999999929
11
169.6009320000000002
21
-118.6213869999999986
0
LINE
8
BLACK
6
CONTINUOUS
10
137.5054299999999898
20
-148.5212870000000009
11
137.5116569999999854
21
-150.913060999999999
0
LINE
8
BLACK
6
CONTINUOUS
10
134.4339960000000076
20
-74.3118809999999996
11
132.5404690000000016
21
-76.5802279999999911
0
LINE
8
BLACK
6
CONTINUOUS
10
132.5404690000000016
20
-76.5802279999999911
11
130.4473459999999818
21
-78.9059269999999913
0
LINE
8
BLACK
6
CONTINUOUS
10
115.9966459999999984
20
-106.8236299999999943
11
115.8123799999999903
21
-107.0002499999999941
0
LINE
8
BLACK
6
CONTINUOUS
10
153.9896970000000067
20
-142.9917519999999911
11
154.5061689999999999
21
-142.9399740000000065
0
LINE
8
BLACK
6
CONTINUOUS
10
127.8881359999999887
20
-89.3221350000000029
11
128.8702140000000043
21
-89.5483929999999901
0
LINE
8
BLACK
6
CONTINUOUS
10
109.278899999999993
20
-129.664749999999998
11
108.0275630000000007
21
-130.6227489999999989
0
LINE
8
BLACK
6
CONTINUOUS
10
159.3006210000000067
20
-90.4879219999999975
11
159.25
21
-90.3499999999999943
0
LINE
8
BLACK
6
CONTINUOUS
10
137.4790140000000065
20
-144.3889409999999884
11
137.499937999999986
21
-145.9102179999999862
0
LINE
8
BLACK
6
CONTINUOUS
10
153.0805169999999862
20
-154.4064339999999902
11
153.3554299999999841
21
-153.9387759999999901
0
LINE
8
BLACK
6
CONTINUOUS
10
112.7554299999999898
20
-126.8485919999999965
11
111.8368449999999967
21
-127.6234489999999937
0
LINE
8
BLACK
6
CONTINUOUS
10
159.2999999999999829
20
-90.25
11
159.4528229999999951
21
-90.1504869999999983
0
LINE
8
BLACK
6
CONTINUOUS
10
119.2230169999999987
20
-120.6996209999999934
11
117.0612579999999951
21
-122.8630939999999896
0
LINE
8
BLACK
6
CONTINUOUS
10
167.7114289999999812
20
-116.5011389999999949
11
165.8321009999999944
21
-114.3354269999999957
0
LINE
8
BLACK
6
CONTINUOUS
10
108.7997379999999907
20
-137.3122659999999939
11
112.1712519999999955
21
-138.4655269999999803
0
LINE
8
BLACK
6
CONTINUOUS
10
174.19923
20
-123.3007569999999902
11
171.2659160000000043
21
-120.3887759999999929
0
LINE
8
BLACK
6
CONTINUOUS
10
147.5331280000000049
20
-61.1651589999999956
11
147.1799000000000035
21
-60.6614329999999953
0
LINE
8
BLACK
6
CONTINUOUS
10
163.4760679999999979
20
-81.9887760000000014
11
160.7728529999999978
21
-79.2628270000000015
0
LINE
8
BLACK
6
CONTINUOUS
10
125.1499999999999915
20
-113.8999999999999915
11
125.0021939999999887
21
-113.8410149999999987
0
LINE
8
BLACK
6
CONTINUOUS
10
169.351302000000004
20
-140.9779800000000023
11
175.713957999999991
21
-139.4248110000000054
0
LINE
8
BLACK
6
CONTINUOUS
10
156.6166699999999992
20
-74.5608139999999935
11
154.6331179999999961
21
-71.9887760000000014
0
LINE
8
BLACK
6
CONTINUOUS
10
148.4224959999999953
20
-62.568368999999997
11
147.9535390000000064
21
-61.8065929999999994
0
LINE
8
BLACK
6
CONTINUOUS
10
152.6767130000000066
20
-154.9392229999999984
11
152.7771259999999813
21
-154.8267400000000009
0
LINE
8
BLACK
6
CONTINUOUS
10
125.211354
20
-84.0737219999999894
11
124.6853579999999937
21
-84.7280200000000008
0
LINE
8
BLACK
6
CONTINUOUS
10
124.4401129999999966
20
-85.3379889999999932
11
124.3642899999999969
21
-86.3387910000000005
0
LINE
8
BLACK
6
CONTINUOUS
10
124.3703879999999913
20
-86.5830809999999929
11
124.4081839999999914
21
-86.8832599999999928
0
LINE
8
BLACK
6
CONTINUOUS
10
124.4081839999999914
20
-86.8832599999999928
11
124.4858119999999957
21
-87.142037000000002
0
LINE
8
BLACK
6
CONTINUOUS
10
124.4858119999999957
20
-87.142037000000002
11
124.6234339999999889
21
-87.4387589999999904
0
LINE
8
BLACK
6
CONTINUOUS
10
124.6234339999999889
20
-87.4387589999999904
11
124.8841229999999882
21
-87.8556049999999971
0
LINE
8
BLACK
6
CONTINUOUS
10
124.8841229999999882
20
-87.8556049999999971
11
125.198291999999995
21
-88.222100999999995
0
LINE
8
BLACK
6
CONTINUOUS
10
125.198291999999995
20
-88.222100999999995
11
125.5620319999999879
21
-88.5331149999999951
0
LINE
8
BLACK
6
CONTINUOUS
10
125.5620319999999879
20
-88.5331149999999951
11
125.9702139999999986
21
-88.7848180000000013
0
LINE
8
BLACK
6
CONTINUOUS
10
125.9702139999999986
20
-88.7848180000000013
11
126.2730339999999956
21
-88.901016999999996
0
LINE
8
BLACK
6
CONTINUOUS
10
124.4401129999999966
20
-85.3379889999999932
11
124.6853579999999937
21
-84.7280200000000008
0
LINE
8
BLACK
6
CONTINUOUS
10
131.5311979999999892
20
-90.517682999999991
11
131.5999999999999943
21
-90.432311999999996
0
LINE
8
BLACK
6
CONTINUOUS
10
131.5999999999999943
20
-90.3499999999999943
11
131.5999999999999943
21
-90.432311999999996
0
LINE
8
BLACK
6
CONTINUOUS
10
115.8123799999999903
20
-107.0002499999999941
11
115.3039849999999973
21
-107.6572279999999893
0
LINE
8
BLACK
6
CONTINUOUS
10
115.3039849999999973
20
-107.6572279999999893
11
115.0659969999999959
21
-108.3293379999999928
0
LINE
8
BLACK
6
CONTINUOUS
10
115.0659969999999959
20
-108.3293379999999928
11
115.0224599999999953
21
-109.172906999999995
0
LINE
8
BLACK
6
CONTINUOUS
10
115.0224599999999953
20
-109.172906999999995
11
115.1971080000000001
21
-110.0350049999999982
0
LINE
8
BLACK
6
CONTINUOUS
10
115.1971080000000001
20
-110.0350049999999982
11
115.6072399999999902
21
-110.8240259999999893
0
LINE
8
BLACK
6
CONTINUOUS
10
115.6072399999999902
20
-110.8240259999999893
11
116.207611
21
-111.4595199999999977
0
LINE
8
BLACK
6
CONTINUOUS
10
116.207611
20
-111.4595199999999977
11
116.9378139999999888
21
-111.8735949999999946
0
LINE
8
BLACK
6
CONTINUOUS
10
116.9378139999999888
20
-111.8735949999999946
11
117.3215739999999983
21
-111.9914829999999881
0
LINE
8
BLACK
6
CONTINUOUS
10
107.0290090000000021
20
-131.408961000000005
11
106.4458429999999964
21
-131.9692919999999958
0
LINE
8
BLACK
6
CONTINUOUS
10
106.4458429999999964
20
-131.9692919999999958
11
106.0846990000000005
21
-132.4823519999999917
0
LINE
8
BLACK
6
CONTINUOUS
10
106.0846990000000005
20
-132.4823519999999917
11
105.8405369999999976
21
-133.075207000000006
0
LINE
8
BLACK
6
CONTINUOUS
10
105.8405369999999976
20
-133.075207000000006
11
105.7295089999999931
21
-133.9663299999999992
0
LINE
8
BLACK
6
CONTINUOUS
10
105.7295089999999931
20
-133.9663299999999992
11
105.8925599999999889
21
-134.8923460000000034
0
LINE
8
BLACK
6
CONTINUOUS
10
105.8925599999999889
20
-134.8923460000000034
11
106.3001489999999905
21
-135.7259109999999964
0
LINE
8
BLACK
6
CONTINUOUS
10
106.3001489999999905
20
-135.7259109999999964
11
106.9023059999999958
21
-136.3489820000000066
0
LINE
8
BLACK
6
CONTINUOUS
10
106.9023059999999958
20
-136.3489820000000066
11
108.7997379999999907
21
-137.3122659999999939
0
LINE
8
BLACK
6
CONTINUOUS
10
136.9780599999999993
20
-143.0018089999999802
11
137.2501419999999825
21
-143.0653269999999964
0
LINE
8
BLACK
6
CONTINUOUS
10
137.2501419999999825
20
-143.0653269999999964
11
137.3804279999999949
21
-143.1577220000000068
0
LINE
8
BLACK
6
CONTINUOUS
10
137.3804279999999949
20
-143.1577220000000068
11
137.4484630000000038
21
-143.3567789999999889
0
LINE
8
BLACK
6
CONTINUOUS
10
137.5641579999999919
20
-153.7558559999999943
11
137.6195730000000026
21
-154.0965479999999843
0
LINE
8
BLACK
6
CONTINUOUS
10
137.6195730000000026
20
-154.0965479999999843
11
137.7841569999999933
21
-154.4753910000000019
0
LINE
8
BLACK
6
CONTINUOUS
10
137.7841569999999933
20
-154.4753910000000019
11
138.0476620000000025
21
-154.8493359999999939
0
LINE
8
BLACK
6
CONTINUOUS
10
138.3895719999999869
20
-155.1838290000000029
11
138.7877979999999809
21
-155.4638789999999915
0
LINE
8
BLACK
6
CONTINUOUS
10
150.9863169999999855
20
-155.7186590000000024
11
151.7874750000000006
21
-155.5468369999999823
0
LINE
8
BLACK
6
CONTINUOUS
10
151.7874750000000006
20
-155.5468369999999823
11
152.433683000000002
21
-155.1806289999999819
0
LINE
8
BLACK
6
CONTINUOUS
10
152.433683000000002
20
-155.1806289999999819
11
152.6767130000000066
21
-154.9392229999999984
0
LINE
8
BLACK
6
CONTINUOUS
10
152.9482179999999971
20
-154.6078499999999849
11
153.0805169999999862
21
-154.4064339999999902
0
LINE
8
BLACK
6
CONTINUOUS
10
183.5292049999999904
20
-136.6398439999999823
11
183.8175799999999924
21
-136.4809640000000002
0
LINE
8
BLACK
6
CONTINUOUS
10
183.8175799999999924
20
-136.4809640000000002
11
184.413566000000003
21
-135.9526019999999846
0
LINE
8
BLACK
6
CONTINUOUS
10
184.413566000000003
20
-135.9526019999999846
11
184.8717099999999789
21
-135.2301159999999811
0
LINE
8
BLACK
6
CONTINUOUS
10
184.8717099999999789
20
-135.2301159999999811
11
185.1366940000000056
21
-134.4151569999999936
0
LINE
8
BLACK
6
CONTINUOUS
10
185.1366940000000056
20
-134.4151569999999936
11
185.1655370000000005
21
-133.6151020000000074
0
LINE
8
BLACK
6
CONTINUOUS
10
185.1655370000000005
20
-133.6151020000000074
11
184.9867209999999886
21
-132.8125789999999995
0
LINE
8
BLACK
6
CONTINUOUS
10
184.9867209999999886
20
-132.8125789999999995
11
184.6602289999999869
21
-132.1925119999999936
0
LINE
8
BLACK
6
CONTINUOUS
10
184.6602289999999869
20
-132.1925119999999936
11
183.8985679999999832
21
-131.4354579999999828
0
LINE
8
BLACK
6
CONTINUOUS
10
165.8321009999999944
20
-114.3354269999999957
11
165.7085739999999987
21
-114.0172939999999926
0
LINE
8
BLACK
6
CONTINUOUS
10
165.7085739999999987
20
-114.0172939999999926
11
165.815100000000001
21
-113.8508649999999989
0
LINE
8
BLACK
6
CONTINUOUS
10
173.4933479999999975
20
-111.960875999999999
11
174.2088259999999877
21
-111.651843999999997
0
LINE
8
BLACK
6
CONTINUOUS
10
174.2088259999999877
20
-111.651843999999997
11
174.8191649999999981
21
-111.2144639999999924
0
LINE
8
BLACK
6
CONTINUOUS
10
174.8191649999999981
20
-111.2144639999999924
11
175.2080799999999954
21
-110.78617899999999
0
LINE
8
BLACK
6
CONTINUOUS
10
175.2080799999999954
20
-110.78617899999999
11
175.4994370000000004
21
-110.2952049999999957
0
LINE
8
BLACK
6
CONTINUOUS
10
175.4994370000000004
20
-110.2952049999999957
11
175.6909029999999916
21
-109.741619
0
LINE
8
BLACK
6
CONTINUOUS
10
175.6909029999999916
20
-109.741619
11
175.7833169999999825
21
-109.1274789999999939
0
LINE
8
BLACK
6
CONTINUOUS
10
175.7833169999999825
20
-109.1274789999999939
11
175.7514709999999809
21
-108.2899539999999945
0
LINE
8
BLACK
6
CONTINUOUS
10
175.7514709999999809
20
-108.2899539999999945
11
175.5349769999999978
21
-107.6153569999999888
0
LINE
8
BLACK
6
CONTINUOUS
10
175.5349769999999978
20
-107.6153569999999888
11
175.0755439999999794
21
-106.97426999999999
0
LINE
8
BLACK
6
CONTINUOUS
10
175.0755439999999794
20
-106.97426999999999
11
174.2743289999999945
21
-106.2253509999999892
0
LINE
8
BLACK
6
CONTINUOUS
10
164.4877630000000011
20
-88.8885219999999947
11
164.769676000000004
21
-88.7818789999999893
0
LINE
8
BLACK
6
CONTINUOUS
10
164.769676000000004
20
-88.7818789999999893
11
165.4557769999999834
21
-88.323205999999999
0
LINE
8
BLACK
6
CONTINUOUS
10
165.4557769999999834
20
-88.323205999999999
11
166.0128379999999879
21
-87.6825219999999916
0
LINE
8
BLACK
6
CONTINUOUS
10
166.0128379999999879
20
-87.6825219999999916
11
166.3786959999999908
21
-86.9397199999999941
0
LINE
8
BLACK
6
CONTINUOUS
10
166.3786959999999908
20
-86.9397199999999941
11
166.5044529999999838
21
-86.1839789999999937
0
LINE
8
BLACK
6
CONTINUOUS
10
166.5044529999999838
20
-86.1839789999999937
11
166.4041899999999998
21
-85.373075
0
LINE
8
BLACK
6
CONTINUOUS
10
166.4041899999999998
20
-85.373075
11
166.1046659999999804
21
-84.7319399999999945
0
LINE
8
BLACK
6
CONTINUOUS
10
166.1046659999999804
20
-84.7319399999999945
11
165.3503989999999817
21
-83.8543080000000032
0
LINE
8
BLACK
6
CONTINUOUS
10
143.75
20
-60.6499999999999986
11
143.0633090000000038
21
-61.6072629999999961
0
LINE
8
BLACK
6
CONTINUOUS
10
143.75
20
-60.6499999999999986
11
144.0999999999999943
21
-60.2999999999999972
0
LINE
8
BLACK
6
CONTINUOUS
10
144.0999999999999943
20
-60.2999999999999972
11
144.4499999999999886
21
-60.1499999999999986
0
LINE
8
BLACK
6
CONTINUOUS
10
144.4499999999999886
20
-60.1499999999999986
11
145.
21
-60.
0
LINE
8
BLACK
6
CONTINUOUS
10
146.5499999999999829
20
-60.1499999999999986
11
146.
21
-60.
0
LINE
8
BLACK
6
CONTINUOUS
10
146.
20
-60.
11
145.5
21
-59.8999999999999986
0
LINE
8
BLACK
6
CONTINUOUS
10
145.
20
-60.
11
145.5
21
-59.8999999999999986
  0
ENDSEC
  0
EOF
